<?xml version="1.0" encoding="iso-8859-1"?>
<!-- Uploaded to: SVG Repo, www.svgrepo.com, Generator: SVG Repo Mixer Tools -->
<svg fill="#000000" height="800px" width="800px" version="1.1" id="Layer_1" xmlns="http://www.w3.org/2000/svg" xmlns:xlink="http://www.w3.org/1999/xlink" 
	 viewBox="0 0 511.467 511.467" xml:space="preserve">
<g transform="translate(1 1)">
	<g>
		<g>
			<path d="M289.72,366.52l38.4-30.72c2.56-2.56,3.413-5.973,2.56-9.387c-0.853-3.413-4.267-5.973-7.68-5.973l-46.08-1.707
				l-14.507-43.52c-0.853-3.413-4.267-5.973-7.68-5.973s-6.827,2.56-7.68,5.973l-14.507,43.52l-46.08,1.707
				c-4.267,0-6.827,2.56-8.533,5.973s0,6.827,2.56,9.387l38.4,30.72l-15.36,45.227c-0.853,3.413,0,6.827,3.413,9.387
				c3.413,2.56,7.68,2.56,10.24,0l37.547-29.867l37.547,29.867c1.707,0.853,3.413,1.707,5.12,1.707s3.413-0.853,4.267-1.707
				c3.413-1.707,4.267-5.973,3.413-9.387L289.72,366.52z M259.853,373.347c-1.707-0.853-3.413-1.707-5.12-1.707
				s-3.413,0.853-5.12,1.707l-20.48,16.213l7.68-23.893c1.707-3.413,0-6.827-2.56-9.387l-24.747-19.627l29.013-1.707
				c3.413,0,6.827-2.56,7.68-5.973l8.533-24.747l8.533,24.747c0.853,3.413,4.267,5.973,7.68,5.973l29.013,1.707l-24.747,19.627
				c-2.56,2.56-3.413,5.973-2.56,9.387l7.68,23.893L259.853,373.347z"/>
			<path d="M110.616,325.545c0.252,0.004,0.505,0.015,0.757,0.015c10.24,0,20.48-3.413,29.867-7.68
				c13.653-8.533,23.04-21.333,27.307-36.693l8.533-33.28c0.853-2.56,0-5.12-0.853-6.827c-0.853-2.56-2.56-3.413-5.12-4.267
				c-15.36-4.267-31.573-1.707-45.227,5.973c-12.92,8.075-22.012,19.975-26.568,34.245c-0.418-4.486-0.653-8.799-0.739-12.912
				c-0.647-18.117,1.656-35.987,6.617-52.916l27.516,9.396c6.827,2.56,12.8,3.413,19.627,3.413c9.387,0,17.92-2.56,26.453-5.973
				c13.653-6.827,24.747-18.773,29.867-34.133c1.707-5.12-0.853-9.387-5.12-11.093l-32.427-11.093
				c-14.77-4.779-29.979-3.574-43.72,2.801c6.477-9.368,13.961-18.048,22.386-25.841c3.413-3.413,3.413-8.533,0-11.947
				c-3.413-3.413-8.533-3.413-11.947,0c-3.886,3.621-7.578,7.415-11.093,11.351v-8.791c0-33.28-26.453-59.733-59.733-59.733
				c-5.12,0-8.533,3.413-8.533,8.533v34.133c0,28.347,19.198,51.728,45.454,58.041c-7.195,12.998-12.809,26.906-16.714,41.417
				l-1.433-5.59c-8.533-31.573-40.96-51.2-72.533-43.52c-1.707,0.853-4.267,2.56-5.12,4.267c-0.853,2.56-0.853,4.267-0.853,6.827
				l8.533,33.28c6.827,27.307,31.573,45.227,58.027,45.227c2.176,0,4.576-0.225,7.083-0.669c-0.235,4.466-0.329,8.957-0.257,13.469
				c0.22,5.618,0.685,11.607,1.481,17.913c-8.529-10.681-20.572-17.51-33.907-20.473c-16.213-3.413-31.573,0-45.227,8.533
				c-4.267,2.56-5.12,7.68-2.56,11.947l18.773,28.16c8.533,13.653,22.187,22.187,37.547,25.6c4.267,0.853,7.68,0.853,11.947,0.853
				c9.08,0,17.666-1.976,25.76-5.545c4.521,11.841,10.405,24.171,18.009,36.791c-28.303-13.189-62.428-2.655-77.902,24.221
				c-0.853,2.56-1.707,4.267-0.853,6.827c0.853,1.707,2.56,4.267,4.267,5.12l29.867,17.067c9.387,5.12,19.627,7.68,29.867,7.68
				c5.12,0,10.24-0.853,15.36-1.707c12.049-3.171,22.208-9.646,29.787-18.364c8.529,9.52,18.173,19.081,29.093,28.604
				c1.707,0.853,4.267,1.707,5.973,1.707c2.56,0,5.12-0.853,6.827-3.413c3.413-3.413,2.56-8.533-0.853-11.947
				C144.249,390.764,122.293,356.422,110.616,325.545z M114.787,284.6c2.56-11.093,9.387-20.48,19.627-26.453
				c7.68-4.267,15.36-6.827,23.893-5.973l-5.973,23.893c-2.56,11.093-9.387,20.48-19.627,26.453
				c-7.68,4.267-15.36,5.973-23.893,5.973L114.787,284.6z M75.533,112.227V87.48c19.627,4.267,34.133,21.333,34.133,41.813v24.747
				C90.04,149.773,75.533,132.707,75.533,112.227z M32.013,202.68l-5.973-23.893c19.627-0.853,38.4,11.947,43.52,32.427
				l5.973,23.893C55.907,235.96,37.133,222.307,32.013,202.68z M60.173,319.587c-11.093-1.707-21.333-8.533-27.307-17.92
				l-13.653-20.48c7.68-3.413,16.213-4.267,24.747-2.56c11.093,1.707,21.333,8.533,27.307,17.92l13.653,20.48
				C77.24,320.44,68.707,321.293,60.173,319.587z M108.813,410.893c-11.093,2.56-22.187,1.707-32.427-4.267L55.053,394.68
				c13.653-15.36,35.84-18.773,52.907-9.387l21.333,12.8C124.173,404.067,117.347,408.333,108.813,410.893z M165.987,177.933
				l23.04,7.68c-4.267,7.68-10.24,13.653-17.92,17.067c-10.24,4.267-21.333,5.12-32.427,1.707l-23.893-8.533
				C126.733,181.347,145.507,170.253,165.987,177.933z"/>
			<path d="M506.467,270.093c-13.653-8.533-29.867-11.947-45.227-8.533c-13.061,2.902-24.875,9.521-33.369,19.827
				c0.551-5.428,0.848-10.627,0.943-15.561c0.077-4.747-0.026-9.473-0.289-14.17c2.301,0.31,4.606,0.516,7.116,0.516
				c11.093,0,21.333-2.56,30.72-7.68c13.653-8.533,23.893-21.333,27.307-36.693l8.533-33.28c0.853-2.56,0-5.12-0.853-6.827
				c-0.853-2.56-2.56-3.413-5.12-4.267c-32.427-7.68-64.853,11.947-72.533,43.52l-1.433,5.591
				c-3.98-14.793-9.738-28.96-17.136-42.174C431.596,164.201,451,140.725,451,112.227V78.093c0-5.12-3.413-8.533-8.533-8.533
				c-33.28,0-59.733,26.453-59.733,59.733v9.644c-3.516-3.936-7.208-7.73-11.093-11.351c-3.413-3.413-8.533-3.413-11.947,0
				s-3.413,8.533,0,11.947c7.759,7.361,14.717,15.518,20.834,24.293c-13.329-5.761-27.951-6.706-42.167-2.107l-32.427,11.093
				c-4.267,1.707-6.827,6.827-5.12,11.093c5.12,14.507,15.36,27.307,29.867,34.133c8.533,4.267,17.067,5.973,26.453,5.973
				c6.827,0,12.8-1.707,19.627-2.56l26.971-9.21c5.002,16.874,7.485,34.679,7.162,52.73c-0.096,4.516-0.378,9.305-0.898,14.328
				c-3.453-15.287-13.662-28.864-27.262-36.514c-13.653-7.68-29.867-10.24-45.227-5.973c-1.707,0.853-4.267,2.56-5.12,4.267
				c-0.853,2.56-1.707,4.267-0.853,6.827l8.533,33.28c6.827,26.453,31.573,44.373,58.027,44.373c0.316,0,0.631-0.013,0.947-0.019
				c-7.391,19.754-18.97,41.015-36.659,62.608c-1.691,0.781-2.508,2.051-3.181,3.815c-9.477,11.129-20.6,22.328-33.64,33.436
				c-3.413,2.56-4.267,8.533-0.853,11.947c1.707,1.707,4.267,2.56,6.827,2.56c1.707,0,4.267-0.853,5.973-0.853
				c11.209-9.645,21.097-19.349,29.821-29.028c11.582,12.504,27.998,19.641,44.419,19.641c10.24,0,20.48-2.56,29.867-7.68
				l29.867-17.067c2.56-0.853,3.413-2.56,4.267-5.12s0-5.12-0.853-6.827c-15.958-27.129-49.076-37.093-76.332-25.018
				c7.324-12.318,13.004-24.379,17.36-35.994c8.063,3.692,16.681,5.545,24.839,5.545c18.773,0,38.4-9.387,49.493-27.307
				l18.773-28.16C511.587,277.773,510.733,272.653,506.467,270.093z M439.907,211.213c5.12-19.627,23.893-33.28,43.52-32.427
				l-5.973,23.893c-3.413,11.093-10.24,20.48-19.627,26.453c-7.68,4.267-15.36,5.973-23.893,5.973L439.907,211.213z M399.8,129.293
				c0-20.48,14.507-37.547,34.133-41.813v24.747c0,20.48-14.507,37.547-34.133,41.813V129.293z M370.787,204.387
				c-10.24,4.267-22.187,3.413-32.427-1.707c-7.68-4.267-13.653-10.24-17.92-17.067l23.04-8.533
				c20.48-6.827,39.253,3.413,51.2,18.773L370.787,204.387z M375.907,302.52c-9.387-5.973-17.067-15.36-19.627-26.453l-5.973-23.893
				c8.533,0,17.067,1.707,23.893,5.973c9.387,5.973,17.067,15.36,19.627,26.453l5.973,23.893
				C391.267,308.493,383.587,306.787,375.907,302.52z M453.56,394.68l-21.333,11.947c-17.067,10.24-40.107,5.973-52.907-8.533
				l21.333-11.947C417.72,375.907,440.76,380.173,453.56,394.68z M475.747,301.667c-11.093,17.067-32.427,23.893-51.2,16.213
				l12.8-21.333c6.827-9.387,16.213-15.36,27.307-17.92c8.533-1.707,17.067-0.853,24.747,2.56L475.747,301.667z"/>
		</g>
	</g>
</g>
</svg>